# xmcd
#
# Track frame offsets: 
#        150
#        15669
#        38517
#        64797
#        91476
#        118337
#        142155
#        166488
#        191332
#        215323
#
# Disc length: 3162 seconds
#
# Revision: 0
# Processed by: cddbd v1.5.2PL0 Copyright (c) Steve Scherf et al.
# Submitted via: ExactAudioCopy v1.0b3
#
DISCID=8a0c580a
DTITLE=Manh Quynh, Kha Tu - Chuyen Tinh Co
DYEAR=1998
DGENRE=
TTITLE0=Chuyen tinh co
TTITLE1=Kha Tu - Tuyet lanh
TTITLE2=Manh Quynh - Nhip cau tri am
TTITLE3=Ai noi voi em
TTITLE4=Manh Quynh - Thu nguoi em gai thanh do
TTITLE5=Em hau phuong anh tien tuyen
TTITLE6=Manh Quynh - Hoa bien
TTITLE7=Kha Tu - Dinh menh
TTITLE8=Manh Quynh - Doan tai but
TTITLE9=Kha Tu - Tinh nghia doi ta
EXTD=
EXTT0=
EXTT1=
EXTT2=
EXTT3=
EXTT4=
EXTT5=
EXTT6=
EXTT7=
EXTT8=
EXTT9=
PLAYORDER=
